HIERARCHY
ROOT hip
{
	OFFSET 0.000000 0.000000 0.000000 
	CHANNELS 6 Xposition Yposition Zposition Xrotation Zrotation Yrotation
	JOINT abdomen
	{
		OFFSET 0.000000 3.402643 0.000000 
		CHANNELS 3 Xrotation Zrotation Yrotation
		JOINT chest
		{
			OFFSET 0.000000 8.438565 -0.680529 
			CHANNELS 3 Xrotation Zrotation Yrotation
			JOINT neck
			{
				OFFSET 0.000000 10.207942 -0.272212 
				CHANNELS 3 Xrotation Zrotation Yrotation
				JOINT head
				{
					OFFSET 0.000000 3.130431 0.000000 
					CHANNELS 3 Xrotation Zrotation Yrotation
					End Site
					{
						OFFSET 0.000000 3.130435 0.000000 
					}
				}
			}
			JOINT lCollar
			{
				OFFSET 3.470700 6.669187 -0.816635 
				CHANNELS 3 Yrotation Zrotation Xrotation
				JOINT lShldr
				{
					OFFSET 3.198488 0.000000 0.000000 
					CHANNELS 3 Zrotation Yrotation Xrotation
					JOINT lForeArm
					{
						OFFSET 10.139888 0.000000 0.000000 
						CHANNELS 3 Yrotation Zrotation Xrotation
						JOINT lHand
						{
							OFFSET 8.370511 0.000000 0.000000 
							CHANNELS 3 Zrotation Yrotation Xrotation
							End Site
							{
								OFFSET 4.083176 0.000000 0.000000 
							}
						}
					}
				}
			}
			JOINT rCollar
			{
				OFFSET -3.470700 6.669187 -0.816635 
				CHANNELS 3 Yrotation Zrotation Xrotation
				JOINT rShldr
				{
					OFFSET -3.198488 0.000000 0.000000 
					CHANNELS 3 Zrotation Yrotation Xrotation
					JOINT rForeArm
					{
						OFFSET -10.139888 0.000000 0.000000 
						CHANNELS 3 Yrotation Zrotation Xrotation
						JOINT rHand
						{
							OFFSET -8.370511 0.000000 0.000000 
							CHANNELS 3 Zrotation Yrotation Xrotation
							End Site
							{
								OFFSET -4.083176 0.000000 0.000000 
							}
						}
					}
				}
			}
		}
	}
	JOINT lThigh
	{
		OFFSET 5.308129 -1.633274 1.361059 
		CHANNELS 3 Xrotation Zrotation Yrotation
		JOINT lShin
		{
			OFFSET -2.041588 -20.007561 0.000000 
			CHANNELS 3 Xrotation Zrotation Yrotation
			JOINT lFoot
			{
				OFFSET 0.000000 -19.190928 -1.224953 
				CHANNELS 3 Xrotation Yrotation Zrotation
				End Site
				{
					OFFSET 0.000000 -2.449906 4.627600 
				}
			}
		}
	}
	JOINT rThigh
	{
		OFFSET -5.308129 -1.633274 1.361059 
		CHANNELS 3 Xrotation Zrotation Yrotation
		JOINT rShin
		{
			OFFSET 2.041588 -20.007561 0.000000 
			CHANNELS 3 Xrotation Zrotation Yrotation
			JOINT rFoot
			{
				OFFSET 0.000000 -19.190928 -1.224953 
				CHANNELS 3 Xrotation Yrotation Zrotation
				End Site
				{
					OFFSET 0.000000 -2.449906 4.627600 
				}
			}
		}
	}
}
MOTION
Frames: 10
Frame Time: 0.033333
0.085614 42.297531 0.507320 -0.205078 3.369142 93.799408 10.370376 -8.712459 -6.345483 -7.421875 2.861328 10.078612 23.303772 2.300014 0.057050 -7.695313 0.654297 -12.519533 2.000000 -2.000000 0.000000 -79.326172 23.945314 -14.062500 -37.130302 -1.299387 15.455082 -0.494104 15.174189 51.594559 -2.000000 2.000000 0.000000 63.710938 -4.423828 67.850807 27.597197 -24.118742 20.209616 30.039154 2.019566 -7.834954 15.069513 7.821397 19.459257 57.921589 2.988868 -1.804443 2.078526 -3.315185 -23.410732 -4.391162 5.102705 2.803529 29.156199 5.095689 2.732443 -17.723404 -21.790562 14.626414 
0.041661 42.111042 0.977233 -2.236328 3.916016 94.531250 10.370376 -8.712459 -6.345483 -6.181641 4.482423 10.595704 22.142345 2.181225 0.055256 -7.763671 1.103516 -13.222469 2.000000 -2.000000 0.000000 -78.085938 22.958984 -14.970702 -37.446896 -2.045451 16.031433 -0.448966 13.347947 51.503654 -2.000000 2.000000 0.000000 63.173828 -3.789063 68.535156 27.459894 -24.673849 17.576681 29.105133 1.178090 -8.126343 7.985243 11.785670 21.327705 68.118996 8.483904 -0.935224 7.062479 -5.156440 -21.493984 -2.263661 7.726656 3.481950 29.327749 5.441469 2.841013 -19.898645 -23.097462 13.434973 
-0.078937 41.924358 1.379637 -3.535156 4.863281 94.922707 10.370376 -8.712459 -6.345483 -4.462891 5.615235 11.093751 21.482738 1.122666 -0.021696 -8.066405 2.167969 -13.232054 2.000000 -2.000000 0.000000 -77.109375 20.957031 -17.105881 -37.555721 -2.628735 21.735928 -0.737039 13.494894 51.129780 -2.000000 2.000000 0.000000 62.392574 -2.529297 70.322258 27.018223 -25.105190 14.226151 27.891953 0.763978 -8.325191 1.248005 14.146436 22.270466 75.040123 13.393045 -0.031730 8.946398 -5.001827 -20.223331 0.263488 9.651464 3.965523 29.499529 5.717269 2.913344 -21.920250 -23.751106 12.426092 
-0.244717 41.801285 1.712287 -4.189453 6.113282 94.716797 10.370376 -8.712459 -6.345483 -2.529298 6.230469 11.513671 21.396086 -0.593633 -0.137351 -8.408204 3.476562 -12.539063 2.000000 -2.000000 0.000000 -76.484375 18.632811 -19.960936 -37.279423 -3.229775 27.303061 -1.558863 15.156851 50.596569 -2.000000 2.000000 0.000000 61.796875 -0.312500 72.861328 25.782267 -25.192976 11.610688 26.874691 0.694859 -8.387995 -4.385394 15.306382 22.505007 77.987198 16.323647 0.572208 9.010693 -3.668779 -19.055866 3.260787 10.963580 4.290663 29.657280 5.668891 2.916037 -23.604717 -23.637550 12.117496 
-0.462276 41.736259 1.955506 -4.238281 7.031250 94.228516 10.370376 -8.712459 -6.345483 -1.044919 6.308594 11.739354 21.604643 -2.332153 -0.269480 -8.583984 4.521484 -11.503907 2.000000 -2.000000 0.000000 -76.201172 16.562502 -22.624166 -36.708813 -3.678826 30.071196 -2.042336 16.847704 50.256329 -2.000000 2.000000 0.000000 61.630859 2.431641 75.381271 23.990412 -25.061621 10.771906 26.673590 0.837167 -8.271646 -9.042892 15.477080 22.223934 76.721695 16.992870 0.763328 8.444232 -1.070453 -18.837269 5.838944 11.492104 4.405863 29.889263 5.473328 2.889507 -24.983578 -22.999832 12.292158 
-0.732951 41.700447 2.126777 -3.916016 7.187500 93.613281 10.370376 -8.712459 -6.345483 -0.488281 5.976563 11.738281 21.818468 -3.748513 -0.361028 -8.457031 5.058594 -10.370233 2.000000 -2.000000 0.000000 -76.191406 15.449221 -24.462894 -36.505684 -4.110588 29.286659 -1.924708 17.677423 50.288857 -2.000000 2.000000 0.000000 61.884766 5.166016 77.099609 22.328020 -25.014751 11.886166 27.697340 1.130991 -7.974293 -12.791109 15.082328 21.746460 71.354134 15.422678 0.497454 7.244318 2.374484 -19.787394 7.398088 11.488082 4.355967 30.300629 5.121839 2.887297 -26.160788 -22.257509 12.675785 
-1.034058 41.693855 2.231393 -3.369141 6.787109 93.261719 10.370376 -8.712459 -6.345483 -0.527342 5.439454 11.622020 21.847973 -4.660733 -0.449592 -8.378907 5.224609 -9.677736 2.000000 -2.000000 0.000000 -76.269531 15.263673 -25.322266 -36.964180 -4.860638 26.136425 -1.408193 17.685772 50.598278 -2.000000 2.000000 0.000000 62.070313 7.138672 78.048088 21.520189 -25.438829 13.011110 28.829586 1.440238 -7.691399 -15.474275 14.415075 21.224195 62.687229 12.180609 0.031527 5.587651 4.882988 -19.924143 8.490862 11.116945 4.223597 30.542902 4.896765 2.822726 -27.337734 -21.681353 13.108808 
-1.318988 41.715149 2.305310 -2.988281 6.269532 93.018646 10.370376 -8.712459 -6.345483 -0.722656 5.019532 11.504761 21.763277 -5.188516 -0.477609 -8.427733 5.214844 -9.452238 2.000000 -2.000000 0.000000 -76.376953 15.546875 -25.573553 -37.842056 -5.929331 22.301548 -0.699551 18.143272 51.023788 -2.000000 2.000000 0.000000 62.099609 8.671876 78.486328 21.316170 -25.749178 12.811006 28.688601 1.629997 -7.640319 -16.941580 13.981239 20.844791 52.827824 8.053971 -0.472840 3.977001 5.680736 -19.406500 9.578992 10.780085 4.106941 30.466110 4.731146 2.813125 -28.385445 -21.204821 13.512110 
-1.569983 41.749371 2.350314 -2.802734 5.722657 92.695313 10.370376 -8.712459 -6.345483 -0.986327 4.814454 11.416836 21.563801 -5.498041 -0.499957 -8.515625 5.087891 -9.414063 2.000000 -2.000000 0.000000 -76.728516 16.181643 -25.563683 -38.895149 -7.544329 17.267820 1.546093 19.226048 52.150486 -2.000000 2.000000 0.000000 62.001949 9.394530 78.769531 21.658445 -26.004326 11.125893 27.153072 1.576150 -7.895583 -16.922583 13.738086 20.786915 42.396778 3.437400 -1.040250 2.978859 5.313658 -19.285299 10.808097 10.574000 4.018970 30.174042 4.486989 2.708186 -29.152859 -20.524319 14.328939 
-1.774897 41.774940 2.342353 -2.705078 5.146484 92.167969 10.370376 -8.712459 -6.345483 -1.396483 4.765626 11.358233 21.327330 -5.648705 -0.515736 -8.525392 4.941406 -9.355471 2.000000 -2.000000 0.000000 -77.373047 17.099611 -25.407282 -40.097610 -8.767175 13.742231 3.106152 21.396315 53.133320 -2.000000 2.000000 0.000000 61.728519 9.492188 78.790672 22.550180 -26.116415 9.184649 25.133669 1.689153 -8.216946 -15.885719 13.344280 20.731972 32.383106 -0.681315 -1.425365 2.537696 4.917750 -19.749609 12.134315 10.348235 3.939741 29.901192 4.155148 2.603932 -29.781702 -19.742506 15.574352 
